<mxfile host="Electron" modified="2024-11-16T03:28:05.437Z" agent="Mozilla/5.0 (Windows NT 10.0; Win64; x64) AppleWebKit/537.36 (KHTML, like Gecko) draw.io/24.6.4 Chrome/124.0.6367.207 Electron/30.0.6 Safari/537.36" etag="VVlQfsElazX6N7MOCZG9" version="24.6.4" type="device">
  <diagram name="第 1 页" id="mqtD5UF4eEN70B48A-e-">
    <mxGraphModel dx="1278" dy="823" grid="1" gridSize="10" guides="1" tooltips="1" connect="1" arrows="1" fold="1" page="1" pageScale="1" pageWidth="1654" pageHeight="1169" math="0" shadow="0">
      <root>
        <mxCell id="0" />
        <mxCell id="1" parent="0" />
        <mxCell id="vEz9qHXpvP1ivfAxWBC--27" style="edgeStyle=orthogonalEdgeStyle;rounded=0;orthogonalLoop=1;jettySize=auto;html=1;entryX=0.5;entryY=0;entryDx=0;entryDy=0;" edge="1" parent="1" source="vEz9qHXpvP1ivfAxWBC--1" target="vEz9qHXpvP1ivfAxWBC--25">
          <mxGeometry relative="1" as="geometry" />
        </mxCell>
        <mxCell id="vEz9qHXpvP1ivfAxWBC--1" value="Nacos服务注册中心" style="rounded=0;whiteSpace=wrap;html=1;" vertex="1" parent="1">
          <mxGeometry x="660" y="670" width="120" height="60" as="geometry" />
        </mxCell>
        <mxCell id="vEz9qHXpvP1ivfAxWBC--21" style="edgeStyle=orthogonalEdgeStyle;rounded=0;orthogonalLoop=1;jettySize=auto;html=1;" edge="1" parent="1" source="vEz9qHXpvP1ivfAxWBC--2" target="vEz9qHXpvP1ivfAxWBC--1">
          <mxGeometry relative="1" as="geometry">
            <Array as="points">
              <mxPoint x="590" y="600" />
              <mxPoint x="720" y="600" />
            </Array>
          </mxGeometry>
        </mxCell>
        <mxCell id="vEz9qHXpvP1ivfAxWBC--34" style="edgeStyle=orthogonalEdgeStyle;rounded=0;orthogonalLoop=1;jettySize=auto;html=1;" edge="1" parent="1" source="vEz9qHXpvP1ivfAxWBC--2" target="vEz9qHXpvP1ivfAxWBC--8">
          <mxGeometry relative="1" as="geometry" />
        </mxCell>
        <mxCell id="vEz9qHXpvP1ivfAxWBC--42" style="edgeStyle=orthogonalEdgeStyle;rounded=0;orthogonalLoop=1;jettySize=auto;html=1;entryX=0.5;entryY=0;entryDx=0;entryDy=0;" edge="1" parent="1" source="vEz9qHXpvP1ivfAxWBC--2" target="vEz9qHXpvP1ivfAxWBC--18">
          <mxGeometry relative="1" as="geometry">
            <Array as="points">
              <mxPoint x="590" y="600" />
              <mxPoint x="430" y="600" />
            </Array>
          </mxGeometry>
        </mxCell>
        <mxCell id="vEz9qHXpvP1ivfAxWBC--2" value="OCR服务实例1（8084端口）" style="rounded=0;whiteSpace=wrap;html=1;" vertex="1" parent="1">
          <mxGeometry x="530" y="460" width="120" height="60" as="geometry" />
        </mxCell>
        <mxCell id="vEz9qHXpvP1ivfAxWBC--22" style="edgeStyle=orthogonalEdgeStyle;rounded=0;orthogonalLoop=1;jettySize=auto;html=1;" edge="1" parent="1" source="vEz9qHXpvP1ivfAxWBC--4" target="vEz9qHXpvP1ivfAxWBC--1">
          <mxGeometry relative="1" as="geometry">
            <Array as="points">
              <mxPoint x="840" y="600" />
              <mxPoint x="720" y="600" />
            </Array>
          </mxGeometry>
        </mxCell>
        <mxCell id="vEz9qHXpvP1ivfAxWBC--35" style="edgeStyle=orthogonalEdgeStyle;rounded=0;orthogonalLoop=1;jettySize=auto;html=1;" edge="1" parent="1" source="vEz9qHXpvP1ivfAxWBC--4" target="vEz9qHXpvP1ivfAxWBC--8">
          <mxGeometry relative="1" as="geometry">
            <Array as="points">
              <mxPoint x="780" y="400" />
              <mxPoint x="480" y="400" />
              <mxPoint x="480" y="490" />
            </Array>
          </mxGeometry>
        </mxCell>
        <mxCell id="vEz9qHXpvP1ivfAxWBC--4" value="OCR服务实例2（8083端口）" style="rounded=0;whiteSpace=wrap;html=1;" vertex="1" parent="1">
          <mxGeometry x="780" y="460" width="120" height="60" as="geometry" />
        </mxCell>
        <mxCell id="vEz9qHXpvP1ivfAxWBC--19" style="edgeStyle=orthogonalEdgeStyle;rounded=0;orthogonalLoop=1;jettySize=auto;html=1;entryX=0.5;entryY=0;entryDx=0;entryDy=0;" edge="1" parent="1" source="vEz9qHXpvP1ivfAxWBC--8" target="vEz9qHXpvP1ivfAxWBC--18">
          <mxGeometry relative="1" as="geometry">
            <Array as="points">
              <mxPoint x="340" y="600" />
              <mxPoint x="430" y="600" />
            </Array>
          </mxGeometry>
        </mxCell>
        <mxCell id="vEz9qHXpvP1ivfAxWBC--41" style="edgeStyle=orthogonalEdgeStyle;rounded=0;orthogonalLoop=1;jettySize=auto;html=1;" edge="1" parent="1" source="vEz9qHXpvP1ivfAxWBC--8" target="vEz9qHXpvP1ivfAxWBC--1">
          <mxGeometry relative="1" as="geometry">
            <Array as="points">
              <mxPoint x="340" y="600" />
              <mxPoint x="720" y="600" />
            </Array>
          </mxGeometry>
        </mxCell>
        <mxCell id="vEz9qHXpvP1ivfAxWBC--8" value="用户服务实例2（8081）" style="rounded=0;whiteSpace=wrap;html=1;" vertex="1" parent="1">
          <mxGeometry x="280" y="460" width="120" height="60" as="geometry" />
        </mxCell>
        <mxCell id="vEz9qHXpvP1ivfAxWBC--40" value="" style="edgeStyle=orthogonalEdgeStyle;rounded=0;orthogonalLoop=1;jettySize=auto;html=1;" edge="1" parent="1" source="vEz9qHXpvP1ivfAxWBC--11" target="vEz9qHXpvP1ivfAxWBC--39">
          <mxGeometry relative="1" as="geometry" />
        </mxCell>
        <mxCell id="vEz9qHXpvP1ivfAxWBC--11" value="网络web界面" style="rounded=0;whiteSpace=wrap;html=1;" vertex="1" parent="1">
          <mxGeometry x="530" y="20" width="120" height="60" as="geometry" />
        </mxCell>
        <mxCell id="vEz9qHXpvP1ivfAxWBC--14" style="edgeStyle=orthogonalEdgeStyle;rounded=0;orthogonalLoop=1;jettySize=auto;html=1;entryX=0.5;entryY=0;entryDx=0;entryDy=0;" edge="1" parent="1" source="vEz9qHXpvP1ivfAxWBC--12" target="vEz9qHXpvP1ivfAxWBC--8">
          <mxGeometry relative="1" as="geometry" />
        </mxCell>
        <mxCell id="vEz9qHXpvP1ivfAxWBC--16" style="edgeStyle=orthogonalEdgeStyle;rounded=0;orthogonalLoop=1;jettySize=auto;html=1;" edge="1" parent="1" source="vEz9qHXpvP1ivfAxWBC--12" target="vEz9qHXpvP1ivfAxWBC--2">
          <mxGeometry relative="1" as="geometry" />
        </mxCell>
        <mxCell id="vEz9qHXpvP1ivfAxWBC--17" style="edgeStyle=orthogonalEdgeStyle;rounded=0;orthogonalLoop=1;jettySize=auto;html=1;entryX=0.5;entryY=0;entryDx=0;entryDy=0;" edge="1" parent="1" source="vEz9qHXpvP1ivfAxWBC--12" target="vEz9qHXpvP1ivfAxWBC--4">
          <mxGeometry relative="1" as="geometry" />
        </mxCell>
        <mxCell id="vEz9qHXpvP1ivfAxWBC--33" style="edgeStyle=orthogonalEdgeStyle;rounded=0;orthogonalLoop=1;jettySize=auto;html=1;entryX=1;entryY=0.5;entryDx=0;entryDy=0;" edge="1" parent="1" source="vEz9qHXpvP1ivfAxWBC--12" target="vEz9qHXpvP1ivfAxWBC--1">
          <mxGeometry relative="1" as="geometry">
            <Array as="points">
              <mxPoint x="1060" y="230" />
              <mxPoint x="1060" y="700" />
            </Array>
          </mxGeometry>
        </mxCell>
        <mxCell id="vEz9qHXpvP1ivfAxWBC--43" value="通过服务名发现服务，不需要ip端口硬编码" style="edgeLabel;html=1;align=center;verticalAlign=middle;resizable=0;points=[];" vertex="1" connectable="0" parent="vEz9qHXpvP1ivfAxWBC--33">
          <mxGeometry x="-0.0098" y="2" relative="1" as="geometry">
            <mxPoint as="offset" />
          </mxGeometry>
        </mxCell>
        <mxCell id="vEz9qHXpvP1ivfAxWBC--12" value="网关服务（鉴权）（8082端口）" style="whiteSpace=wrap;html=1;rounded=0;" vertex="1" parent="1">
          <mxGeometry x="530" y="200" width="120" height="60" as="geometry" />
        </mxCell>
        <mxCell id="vEz9qHXpvP1ivfAxWBC--26" style="edgeStyle=orthogonalEdgeStyle;rounded=0;orthogonalLoop=1;jettySize=auto;html=1;" edge="1" parent="1" source="vEz9qHXpvP1ivfAxWBC--18" target="vEz9qHXpvP1ivfAxWBC--25">
          <mxGeometry relative="1" as="geometry" />
        </mxCell>
        <mxCell id="vEz9qHXpvP1ivfAxWBC--18" value="Nacos服务调用发现" style="rounded=0;whiteSpace=wrap;html=1;" vertex="1" parent="1">
          <mxGeometry x="370" y="670" width="120" height="60" as="geometry" />
        </mxCell>
        <mxCell id="vEz9qHXpvP1ivfAxWBC--25" value="Nacos总线服务" style="rounded=0;whiteSpace=wrap;html=1;" vertex="1" parent="1">
          <mxGeometry x="510" y="800" width="120" height="60" as="geometry" />
        </mxCell>
        <mxCell id="vEz9qHXpvP1ivfAxWBC--31" style="edgeStyle=orthogonalEdgeStyle;rounded=0;orthogonalLoop=1;jettySize=auto;html=1;entryX=0.5;entryY=0;entryDx=0;entryDy=0;" edge="1" parent="1" target="vEz9qHXpvP1ivfAxWBC--12">
          <mxGeometry relative="1" as="geometry">
            <mxPoint x="590" y="150" as="sourcePoint" />
          </mxGeometry>
        </mxCell>
        <mxCell id="vEz9qHXpvP1ivfAxWBC--39" value="Nginx反向代理" style="whiteSpace=wrap;html=1;rounded=0;" vertex="1" parent="1">
          <mxGeometry x="530" y="100" width="120" height="60" as="geometry" />
        </mxCell>
      </root>
    </mxGraphModel>
  </diagram>
</mxfile>
